<svg width="22" height="22" viewBox="0 0 22 22" fill="none" xmlns="http://www.w3.org/2000/svg">
<path d="M13.4557 0.424072H2.89569C1.72353 0.424072 0.783691 1.37447 0.783691 2.53607V13.0961H2.89569V2.53607H13.4557V0.424072ZM17.6797 4.64807H7.11969C5.94753 4.64807 5.00769 5.59847 5.00769 6.76007V17.3201H7.11969V6.76007H17.6797V4.64807ZM19.7917 8.87207H11.3437C10.1715 8.87207 9.23169 9.82247 9.23169 10.9841V19.4321C9.23169 20.5937 10.1715 21.5441 11.3437 21.5441H19.7917C20.9533 21.5441 21.9037 20.5937 21.9037 19.4321V10.9841C21.9037 9.82247 20.9533 8.87207 19.7917 8.87207Z" fill="black"/>
</svg>
