<svg width="20" height="20" viewBox="0 0 20 20" fill="none" xmlns="http://www.w3.org/2000/svg">
<path d="M10.3438 0.0319824C5.09552 0.0319824 0.839844 4.28766 0.839844 9.53598C0.839844 14.7843 5.09552 19.04 10.3438 19.04C11.2203 19.04 11.9278 18.3325 11.9278 17.456C11.9278 17.0441 11.7694 16.6745 11.516 16.3894C11.2731 16.1149 11.1147 15.7453 11.1147 15.344C11.1147 14.4675 11.8222 13.76 12.6987 13.76H14.5678C17.4824 13.76 19.8478 11.3945 19.8478 8.47998C19.8478 3.81246 15.5922 0.0319824 10.3438 0.0319824ZM4.53584 9.53598C3.65936 9.53598 2.95184 8.82846 2.95184 7.95198C2.95184 7.0755 3.65936 6.36798 4.53584 6.36798C5.41232 6.36798 6.11984 7.0755 6.11984 7.95198C6.11984 8.82846 5.41232 9.53598 4.53584 9.53598ZM7.70384 5.31198C6.82736 5.31198 6.11984 4.60446 6.11984 3.72798C6.11984 2.8515 6.82736 2.14398 7.70384 2.14398C8.58032 2.14398 9.28784 2.8515 9.28784 3.72798C9.28784 4.60446 8.58032 5.31198 7.70384 5.31198ZM12.9838 5.31198C12.1074 5.31198 11.3998 4.60446 11.3998 3.72798C11.3998 2.8515 12.1074 2.14398 12.9838 2.14398C13.8603 2.14398 14.5678 2.8515 14.5678 3.72798C14.5678 4.60446 13.8603 5.31198 12.9838 5.31198ZM16.1518 9.53598C15.2754 9.53598 14.5678 8.82846 14.5678 7.95198C14.5678 7.0755 15.2754 6.36798 16.1518 6.36798C17.0283 6.36798 17.7358 7.0755 17.7358 7.95198C17.7358 8.82846 17.0283 9.53598 16.1518 9.53598Z" fill="black"/>
</svg>
