<svg width="138" height="60" viewBox="0 0 138 60" fill="none" xmlns="http://www.w3.org/2000/svg">
<path d="M10.8217 52.8049C11.6697 51.8928 12.6665 50.8628 13.2617 50.3784C13.0944 50.364 12.8302 50.3316 12.5434 50.2883C11.923 50.8535 11.1317 51.6792 10.4227 52.4364C9.52421 53.4056 8.78382 54.2524 8.78382 54.2565C8.7725 54.2637 8.76838 54.2786 8.75653 54.2889C8.16958 54.4506 7.17329 54.7244 6.51065 54.9051C5.52827 55.1774 4.6468 55.1105 4.6468 55.7529C4.6468 55.7529 3.62993 56.298 3.8678 57.1108C3.8678 57.1108 5.90773 55.4816 7.65316 55.2057C7.65316 55.2057 6.58685 55.8991 6.68365 56.839C6.68365 56.839 8.12066 54.6894 9.79864 55.9927C9.79864 55.9927 9.05104 54.9771 9.36254 54.4181C9.63079 54.1139 10.1863 53.489 10.8217 52.8049ZM7.59034 27.4233C7.5023 27.4624 7.41065 27.4768 7.31643 27.4768C7.01883 27.4768 6.73977 27.2967 6.61877 27.0017C6.60796 26.9775 6.59406 26.9487 6.58891 26.9183L6.36752 26.9919C6.5539 27.5345 7.11408 27.8315 7.61969 27.6565C7.74687 27.6107 7.86065 27.5432 7.9487 27.4567C8.22673 27.1953 8.33949 26.7701 8.20098 26.366L7.69332 26.5395C7.72524 26.6141 7.74687 26.6949 7.74687 26.7814C7.74687 26.8565 7.73399 26.9245 7.70413 26.9894L7.93582 27.1304C7.89566 27.1911 7.84624 27.2519 7.78703 27.3023C7.73399 27.3528 7.66603 27.3929 7.59034 27.4233ZM28.1477 25.7771L18.1144 28.2237V28.2129L18.1175 28.2237L37.7151 19.7458L21.564 21.7235L30.2093 15.4101L20.9452 19.0262L22.3441 16.2193L15.7171 20.9915L15.661 20.8906L25.0564 0.583893L9.77805 18.6628L9.68279 8.80594L4.07684 21.9809L3.78542 18.0971L1.02363 28.2036L1.02878 28.2006V28.2036C1.02878 28.2036 1.40103 27.9283 1.90149 27.7774C1.94165 27.7666 1.98233 27.7563 2.02249 27.745C2.02764 27.745 2.03279 27.7409 2.03845 27.7409C2.07912 27.7321 2.11928 27.7224 2.15945 27.7162C2.16459 27.7162 2.17077 27.7115 2.17849 27.7115C2.21968 27.7043 2.25933 27.6987 2.30567 27.6961V27.6915C2.34892 27.6879 2.39114 27.6858 2.43181 27.6822H2.45807C2.49875 27.6786 2.54251 27.6786 2.58834 27.6822C2.59091 27.6822 2.59348 27.6822 2.60327 27.6858C2.64137 27.6858 2.67895 27.6879 2.71963 27.6961C2.72735 27.6987 2.7325 27.6987 2.74125 27.6987C2.78502 27.7043 2.82466 27.7115 2.86534 27.7224C2.87615 27.7224 2.88696 27.726 2.89211 27.7285C2.93433 27.7393 2.97758 27.7507 3.02392 27.7666C3.96871 28.1084 4.77243 27.7666 4.77243 27.7666C4.77243 27.7666 5.66214 28.3375 5.66214 28.8167H5.66008V28.8188C5.66008 28.8188 4.48925 28.8872 4.48925 28.3689C4.48925 28.3689 2.992 27.8371 0.896973 28.6134L5.31511 30.5128C5.31254 30.4922 5.0793 29.6702 5.33468 29.384C5.41551 29.2851 5.55762 29.2506 5.77901 29.3258C5.85985 29.3546 5.91855 29.3474 5.9551 29.3119C6.29852 28.9577 4.63239 25.8816 4.63239 25.8816C4.63239 25.8816 3.13616 25.7365 1.84177 27.0902C1.75578 27.1798 1.66619 27.2761 1.5833 27.3816V27.377V27.3816C1.71562 27.151 2.13525 26.4823 2.83548 25.9032C3.2551 25.5512 3.78027 25.2356 4.40584 25.0575C4.5773 24.6462 4.3595 24.9139 4.71322 24.6977C4.7158 24.6977 4.7158 24.6941 4.7158 24.6941C4.8821 23.6095 5.49635 20.816 7.61506 18.4265C7.75716 18.268 7.90339 18.1079 8.05888 17.9561C8.05888 17.9561 7.5162 18.9768 7.5162 19.6866C7.53165 19.6686 8.06763 18.8646 8.80854 18.129V18.1259C8.80854 18.1259 8.79978 18.1378 8.78897 18.1579C8.6515 18.4523 7.64132 20.608 7.74687 21.2376C7.74995 21.2432 7.75201 21.2468 7.75201 21.253L9.79401 19.3824C9.79401 19.3824 9.78834 19.386 9.78525 19.3881C9.72604 19.4689 7.86786 21.9809 7.68457 22.842V22.8477L10.7764 20.64L10.7733 20.6436C10.763 20.6616 10.3841 21.1902 10.2244 21.48C10.1112 21.6875 10.0947 21.7575 10.0947 21.7791L10.0998 21.7956L11.7644 21.0821C11.7644 21.0821 11.6924 21.1686 11.576 21.2947L10.9566 21.9242L10.8037 22.0859L9.67764 23.2235L9.65654 23.2497L8.79978 24.1202L8.25041 24.6797C8.25041 24.6797 7.80093 25.1476 7.74687 25.39C7.69332 25.6284 7.94664 25.7756 7.94664 25.7756H7.94355C8.17267 25.9032 8.35751 26.1009 8.46615 26.3372C8.52587 26.4803 8.55985 26.6357 8.55985 26.803C8.55985 27.1304 8.42547 27.4274 8.20098 27.6421C7.98113 27.8582 7.67118 27.9931 7.32982 27.9931C7.01883 27.9931 6.74286 27.8804 6.52713 27.7002C6.56471 27.7507 7.17329 28.5156 8.29057 27.921L9.67147 26.9147L9.73119 26.8679L11.1584 25.8245C11.4952 26.2219 11.8133 26.7006 12.1012 27.2436C11.2532 28.0492 9.80688 29.4468 8.36266 30.975C7.5023 31.8836 6.64349 32.8441 5.91031 33.7511L6.42518 31.3323L6.46792 31.1325C6.46792 31.1325 6.46586 31.1325 6.46586 31.1362C6.46019 31.1387 6.4571 31.1387 6.45299 31.1423C6.45299 31.1444 6.44629 31.148 6.44629 31.148C6.44114 31.1506 6.43548 31.1506 6.43239 31.1588C6.42982 31.1588 6.42518 31.1609 6.42518 31.1665C6.41952 31.1696 6.41077 31.1732 6.40613 31.1768C6.40304 31.1789 6.40098 31.1866 6.39223 31.1881C6.38708 31.1912 6.37936 31.1989 6.37215 31.201C6.36752 31.2082 6.36288 31.2113 6.35464 31.217C6.34898 31.2226 6.34486 31.2288 6.33302 31.2314C6.3253 31.2396 6.32015 31.2473 6.31139 31.2515C6.30419 31.2576 6.29543 31.2674 6.28668 31.269C6.27999 31.2798 6.27123 31.289 6.26403 31.2921C6.25218 31.2998 6.24446 31.3096 6.23365 31.3168C6.22541 31.3225 6.21769 31.3323 6.21048 31.3405C6.19915 31.3498 6.18525 31.357 6.17753 31.3698C6.16363 31.375 6.15848 31.3843 6.14509 31.3899C6.13685 31.4033 6.12347 31.4131 6.10956 31.4249C6.10236 31.4337 6.08794 31.4435 6.08022 31.4538C6.06631 31.4651 6.05035 31.4779 6.03954 31.4924C6.02873 31.5021 6.02152 31.5114 6.0071 31.5186C5.99681 31.5346 5.98136 31.55 5.96179 31.5644C5.95098 31.5732 5.94274 31.5804 5.93502 31.5907C5.92627 31.5994 5.91597 31.6087 5.90464 31.6174C5.90464 31.621 5.90258 31.621 5.90258 31.621C5.88714 31.6355 5.87015 31.654 5.85419 31.6715C5.84028 31.6802 5.82947 31.6947 5.81969 31.7075C5.80012 31.7219 5.78622 31.7384 5.77026 31.7538C5.75687 31.7667 5.74297 31.7827 5.7301 31.794C5.71929 31.8105 5.70539 31.8228 5.69818 31.8331C5.69251 31.8372 5.68531 31.845 5.67913 31.8511C5.67913 31.8532 5.67398 31.8573 5.6678 31.863C5.65802 31.8733 5.64927 31.882 5.63845 31.8933C5.62507 31.9093 5.61168 31.9222 5.59829 31.9381C5.5952 31.9438 5.59314 31.9484 5.58748 31.9495C5.58182 31.9556 5.57718 31.9582 5.57152 31.9644C5.56431 31.9772 5.55504 31.9865 5.54423 31.9958C5.52827 32.0189 5.51231 32.0364 5.49068 32.055C5.47678 32.075 5.46031 32.0895 5.44743 32.1101C5.43147 32.1301 5.40985 32.1517 5.39337 32.1703C5.37741 32.1904 5.36248 32.2063 5.34703 32.2264C5.32644 32.249 5.31048 32.2727 5.28885 32.2954C5.27495 32.3134 5.25848 32.3319 5.24097 32.3535C5.22398 32.3782 5.20493 32.3999 5.1833 32.4287C5.16734 32.4431 5.15396 32.4652 5.13697 32.4832C5.11689 32.5136 5.09475 32.5394 5.07312 32.5687C5.05664 32.5903 5.04326 32.6047 5.03245 32.6238C5.00619 32.6588 4.97838 32.6933 4.95161 32.7277C4.94337 32.7416 4.92947 32.7576 4.92226 32.7705C4.88468 32.8225 4.84452 32.875 4.80848 32.9295L4.80384 32.9357C4.7678 32.9882 4.73021 33.0402 4.69572 33.0932C4.68696 33.1087 4.67564 33.1267 4.66431 33.1431C4.6396 33.1833 4.61076 33.224 4.58347 33.2667C4.56906 33.2868 4.55876 33.3068 4.5428 33.3269C4.5186 33.3676 4.49389 33.4036 4.46711 33.4438C4.45321 33.4685 4.44034 33.4901 4.42747 33.5122C4.40584 33.5529 4.37856 33.5941 4.3523 33.6342C4.34097 33.6589 4.32501 33.6826 4.31214 33.7083C4.28742 33.749 4.2658 33.7912 4.23851 33.8319C4.22461 33.8535 4.20916 33.8823 4.19526 33.907C4.17055 33.9544 4.14635 33.9951 4.12163 34.0383C4.11031 34.0625 4.09537 34.0898 4.0825 34.1176C3.96871 34.3265 3.85853 34.5427 3.74526 34.7764V34.7806L3.17684 34.8758C3.29062 34.5834 3.40338 34.3178 3.52489 34.0661L2.59812 35.3705L3.52489 35.2799C2.7325 37.1005 2.15121 39.4833 2.15121 42.8765L2.9055 42.3993C3.57072 46.1868 6.69395 47.8515 6.69395 47.8515L6.6888 47.8278C8.40899 48.9536 10.5035 49.7411 12.8117 50.0531C13.1319 50.0938 13.3914 50.1174 13.4501 50.1231C13.4522 50.1231 13.4522 50.1231 13.4522 50.1215C13.4939 50.1267 13.531 50.1339 13.5711 50.1339C14.8212 50.243 16.0353 50.1982 17.1964 50.0284C17.1933 50.0726 17.1907 50.1174 17.1907 50.1622C17.1907 50.9122 17.6077 51.5294 18.1391 51.5803C17.0481 53.436 16.164 55.9006 16.1615 55.9119C16.1192 56.0252 16.0322 56.2352 15.9442 56.298C15.6754 56.3587 15.6538 56.3721 15.3562 56.4648L15.3608 56.4612C15.2604 56.3634 14.3985 56.2022 13.5207 56.5317C13.5227 56.5358 13.5227 56.5358 13.5279 56.5404C13.031 56.7582 12.5476 57.1561 12.2124 57.8155C12.5692 57.5272 13.2349 57.0588 13.7771 57.1236C13.135 57.4891 12.026 58.1871 11.8993 59.1919C11.8993 59.1919 15.7496 56.491 17.6479 56.9893C17.6479 56.9893 17.3714 57.3033 18.0253 58.4697L18.3239 57.3846C18.6658 56.332 17.3472 56.177 16.7927 56.1544C16.7953 56.1467 16.7953 56.1431 16.7953 56.1415C16.7953 56.1415 16.8565 55.9727 16.9642 55.6937C17.2911 54.8505 18.0521 52.9866 18.8852 51.656C18.9001 51.6282 18.9109 51.5984 18.9196 51.5711L18.7636 51.3564C18.7652 51.3564 18.8764 51.2349 18.9361 51.1454C19.0463 50.9709 19.1997 50.6749 19.2023 50.2832C19.2023 49.9759 19.1271 49.5883 18.9083 49.1065L19.4016 48.8779C19.4283 48.9407 19.4546 48.9989 19.4809 49.055C19.4881 49.0766 19.4953 49.0957 19.5015 49.1121C19.5169 49.1523 19.5329 49.1929 19.5462 49.2331C19.5545 49.2511 19.5617 49.2738 19.5689 49.2938C19.5823 49.3376 19.5946 49.3783 19.6091 49.4184C19.6122 49.4308 19.6199 49.4472 19.623 49.4616L22.4409 48.6108L21.8163 48.0965H21.8122L21.7844 48.0687L21.77 48.0579L11.1121 38.3539C11.1152 38.3539 11.1183 38.3591 11.1183 38.3591L11.1152 38.3539C14.0783 39.7947 17.5346 41.4697 23.3975 44.1855C29.1734 46.8472 32.8305 48.3977 34.717 49.1703C34.733 49.1806 34.7505 49.1873 34.7634 49.1929H34.7665C35.0404 49.3057 35.2757 49.3999 35.4739 49.4807C35.8776 49.6387 36.256 49.7849 36.2766 49.7942C36.3085 49.7762 36.3466 49.7664 36.379 49.7494L14.8315 34.9746L28.1477 25.7771ZM13.2349 30.3311L10.0226 32.7741L12.3282 27.7043V27.7002C12.6948 28.4775 13.0027 29.3659 13.238 30.3311H13.2349ZM24.7053 47.8098L24.7856 48.1954H24.7836L28.538 50.4093L29.488 50.9611L28.9685 49.6248C32.0659 50.538 34.5883 50.5889 36.2658 49.7988C36.2658 49.7988 36.2637 49.7988 36.2637 49.7998C33.3439 50.6625 26.1037 48.2237 24.7053 47.8098Z" fill="#DC0D15"/>
<path d="M4.48879 28.3685C4.48879 28.8869 5.65962 28.8184 5.65962 28.8184C5.65962 28.3418 4.77146 27.7683 4.77146 27.7683C4.77146 27.7683 3.96825 28.1081 3.01831 27.7683C2.63782 27.6309 2.23982 27.6757 1.90103 27.7792C1.45103 28.0793 0.895996 28.6166 0.895996 28.6166C2.99154 27.8373 4.48879 28.3685 4.48879 28.3685ZM12.3278 27.7045L10.0221 32.7737L13.2345 30.3308C13.0022 29.3656 12.6897 28.4813 12.3278 27.7045ZM36.2813 49.7943C36.2813 49.7943 29.0648 47.0873 11.1116 38.3536L21.8112 48.0967H21.8159C22.774 47.6988 23.4485 47.4162 24.7831 48.1955L24.7043 47.8095C26.1001 48.2233 33.3676 50.6746 36.2813 49.7943ZM18.9073 49.1061C19.1267 49.5879 19.2018 49.9761 19.2018 50.2828C19.1988 50.6746 19.0458 50.9711 18.9357 51.1456C18.8759 51.2351 18.7647 51.3561 18.7632 51.3561L19.0834 51.7952C19.1179 51.773 19.7435 51.3005 19.7435 50.2828C19.7435 49.887 19.6488 49.4186 19.399 48.8776L18.9073 49.1061ZM12.4663 50.2751C12.9755 50.3559 13.4394 50.3987 13.4394 50.3987L13.4631 50.1294C13.4631 50.1294 13.0089 50.0893 12.5105 50.0085L12.4663 50.2751ZM12.1007 27.2438C11.8129 26.7008 11.4947 26.222 11.158 25.8247L8.29011 27.9243C7.13216 28.5358 6.52152 27.6989 6.52152 27.6989C6.73364 27.8806 7.01631 27.9928 7.32936 27.9928C8.01002 27.9928 8.55682 27.4564 8.55888 26.8032C8.55888 26.638 8.52541 26.4799 8.46311 26.341C8.35704 26.1006 8.16912 25.9029 7.94103 25.7768L7.94618 25.7752C7.94618 25.7752 7.69286 25.6285 7.7464 25.3897C7.80047 25.1473 8.24944 24.6794 8.24944 24.6794L8.24686 24.6814L9.65607 23.2494L9.67718 23.2236L10.9561 21.9239L11.5755 21.2944C11.6919 21.1683 11.7609 21.0854 11.7609 21.0854L10.0942 21.7957C10.0942 21.7957 10.0623 21.7777 10.224 21.4797C10.3851 21.1842 10.7754 20.6396 10.7754 20.6396L7.68153 22.8479C7.86019 21.9811 9.79303 19.3857 9.79303 19.3857L7.75104 21.2542C7.61408 20.6031 8.80807 18.1287 8.80807 18.1287C8.05636 18.8735 7.51522 19.6909 7.51522 19.6909C7.51522 18.977 8.05636 17.9557 8.05636 17.9557C5.57672 20.4358 4.88833 23.5392 4.71534 24.6938C4.35595 24.9182 4.57683 24.6449 4.40538 25.0572C2.74028 25.5271 1.79548 27.0122 1.58078 27.3813C2.9313 25.715 4.63141 25.8813 4.63141 25.8813C4.63141 25.8813 6.66156 29.6317 5.77855 29.3291C4.88833 29.0207 5.31465 30.5125 5.31465 30.5125L3.65366 29.7964C3.92758 30.3385 4.46665 31.615 4.15721 32.9431C3.81534 33.4625 3.47603 34.0956 3.17586 34.876L3.74428 34.7807C3.8555 34.5429 3.96568 34.3262 4.07638 34.1188C4.09234 34.092 4.10933 34.0663 4.12117 34.04C4.14331 33.9963 4.16802 33.9541 4.1948 33.9103C4.20818 33.8846 4.22415 33.8563 4.23805 33.8315C4.26173 33.7914 4.28233 33.7507 4.30859 33.7106C4.32455 33.6823 4.34051 33.6586 4.35183 33.6339C4.37758 33.5937 4.3992 33.5526 4.42701 33.515C4.43988 33.4898 4.45275 33.4681 4.46665 33.4481C4.49085 33.4074 4.51762 33.3672 4.54234 33.3281C4.55367 33.3065 4.56551 33.2864 4.5825 33.2664C4.60567 33.2257 4.6345 33.1855 4.66333 33.1454C4.67518 33.1263 4.68238 33.1083 4.69526 33.0934C4.72975 33.0399 4.76734 32.9879 4.80338 32.9374C4.80338 32.9354 4.8075 32.9318 4.8075 32.9297C4.84354 32.8746 4.88113 32.8252 4.91717 32.7737C4.92901 32.7614 4.94034 32.7444 4.95115 32.73C4.97792 32.6929 5.00264 32.6605 5.02889 32.6239C5.0428 32.6044 5.05567 32.59 5.07214 32.572C5.09171 32.5431 5.11282 32.5133 5.13444 32.4834C5.15298 32.4654 5.16688 32.4474 5.17975 32.4283C5.19983 32.4026 5.22043 32.3779 5.24051 32.3532C5.25544 32.3352 5.27449 32.3172 5.28788 32.2971C5.3095 32.2724 5.32546 32.2513 5.344 32.2286C5.3615 32.2106 5.37489 32.1921 5.39034 32.1741C5.40939 32.1514 5.42741 32.1298 5.44697 32.1113C5.45984 32.0932 5.47632 32.0763 5.49022 32.0593C5.50824 32.0361 5.52729 32.0186 5.54068 31.9985C5.55716 31.9841 5.57054 31.964 5.5865 31.9496C5.60401 31.9316 5.61894 31.9151 5.63799 31.8961C5.65138 31.8776 5.66476 31.8673 5.67815 31.8508C5.69772 31.8328 5.71213 31.8168 5.72964 31.7968C5.74045 31.7865 5.75641 31.77 5.7698 31.7535C5.78267 31.7381 5.79966 31.7216 5.81871 31.7072C5.82901 31.6959 5.83982 31.6835 5.85372 31.6712C5.86917 31.6542 5.88668 31.6351 5.90161 31.6207C5.91551 31.612 5.92272 31.5991 5.93404 31.5919C5.96082 31.5646 5.98244 31.542 6.00664 31.5183C6.02106 31.5111 6.02827 31.5018 6.03908 31.4925C6.04989 31.4781 6.06585 31.4653 6.07924 31.4534C6.08696 31.4431 6.10138 31.4333 6.1091 31.4246C6.12249 31.4133 6.13639 31.403 6.14411 31.3901C6.15801 31.3844 6.16316 31.3747 6.17655 31.37C6.18479 31.3566 6.19817 31.3494 6.21002 31.3402C6.21723 31.3324 6.22495 31.3222 6.23319 31.3165C6.244 31.3093 6.25172 31.3 6.26305 31.2918C6.27026 31.2892 6.27901 31.2794 6.28622 31.2686C6.29497 31.2676 6.30372 31.2573 6.31093 31.2516C6.31969 31.247 6.32432 31.2393 6.33256 31.2316C6.34388 31.2285 6.34852 31.2228 6.35418 31.2171C6.36191 31.211 6.36705 31.2084 6.37169 31.2012C6.37838 31.1986 6.38662 31.1909 6.39177 31.1883C6.40001 31.1868 6.40258 31.1785 6.40515 31.1765C6.4103 31.1729 6.41906 31.1693 6.42472 31.1662C6.42472 31.1605 6.42935 31.1585 6.43193 31.1585C6.43502 31.1507 6.44068 31.1507 6.44583 31.1477C6.44583 31.1477 6.45201 31.1441 6.45201 31.142C6.45664 31.1384 6.45922 31.1384 6.4654 31.1363C6.4654 31.1327 6.46745 31.1327 6.46745 31.1327L6.42472 31.3325L5.90985 33.7507C7.86225 31.3325 10.745 28.5266 12.1007 27.2438ZM6.36499 26.9921L6.58845 26.9185C6.5936 26.9489 6.6075 26.9777 6.61831 27.0014C6.73931 27.2963 7.01837 27.4765 7.31545 27.4765C7.41019 27.4765 7.50184 27.4621 7.58988 27.423C7.73816 27.3627 7.85659 27.2557 7.93536 27.1306L7.70367 26.9921C7.73302 26.9283 7.7464 26.8562 7.7464 26.7816C7.7464 26.6951 7.72478 26.6143 7.69286 26.5391L8.20052 26.3662C8.38433 26.9061 8.12587 27.4837 7.61717 27.6582C7.11156 27.8311 6.55035 27.5372 6.36499 26.9921Z" fill="black"/>
<path d="M53.3384 31.0533C52.996 30.9617 52.4843 30.9112 51.8185 30.9112H50.3727V39.0797L50.5262 38.9727L51.715 38.1347L51.7572 38.1038V35.7926H52.2114C53.0501 35.7926 53.7308 35.5687 54.2307 35.1342C54.7348 34.692 54.9886 34.0918 54.9886 33.3455C54.9886 32.6464 54.7502 32.0612 54.2812 31.6C54.0114 31.3344 53.6963 31.1501 53.3384 31.0533ZM52.1346 34.6153H51.7536V32.1111H52.181C53.273 32.1111 53.8229 32.5157 53.8229 33.3228C53.8229 34.1845 53.2576 34.6153 52.1346 34.6153ZM61.0281 35.5965C61.5059 35.4616 61.9018 35.2032 62.2051 34.8228C62.5397 34.4074 62.7061 33.8993 62.7061 33.3228C62.7061 32.5842 62.4363 31.9762 61.9054 31.5233C61.4286 31.1197 60.6471 30.9112 59.5854 30.9112H58.0969V39.0797L58.2467 38.9727L59.4397 38.1347L59.4819 38.1038V35.7653H59.5473L61.771 38.95L61.8246 39.0303L61.9054 38.9727L62.8595 38.2839L62.9403 38.2263L62.8827 38.146L61.0281 35.5965ZM59.4819 34.6153V34.534V32.2274V32.1111H59.9087C61.0013 32.1111 61.5517 32.5157 61.5517 33.3228C61.5517 34.1845 60.9864 34.6153 59.8624 34.6153H59.4819ZM40.2709 31.1537C39.8013 30.9926 39.1588 30.9112 38.3623 30.9112H36.6127V38.9876H38.3437C39.1469 38.9876 39.7777 38.915 40.2246 38.7647C40.6977 38.6149 41.1622 38.3457 41.5972 37.9653C42.4591 37.1994 42.9014 36.1884 42.9014 34.9494C42.9014 33.7228 42.4782 32.7113 41.6477 31.9541C41.2358 31.5804 40.7745 31.3117 40.2709 31.1537ZM40.6591 36.9693C40.3862 37.2143 40.0747 37.3996 39.7313 37.5108C39.3941 37.6225 38.9554 37.6765 38.4354 37.6765H37.9972V32.2274H38.4354C39.4167 32.2274 40.1705 32.4616 40.6663 32.9198C41.2245 33.4386 41.5015 34.1186 41.5015 34.9494C41.5015 35.7766 41.2209 36.453 40.6591 36.9693ZM31.569 32.0766C32.0798 32.0766 32.5844 32.2228 33.0766 32.5116L33.162 32.561L33.2079 32.4766L33.785 31.4811L33.835 31.3966L33.7505 31.3462C33.0766 30.9581 32.3686 30.762 31.6529 30.762C30.3302 30.762 29.2382 31.2571 28.4072 32.2382C27.7301 33.0423 27.3872 33.9652 27.3872 34.9885C27.3872 36.1261 27.7991 37.1191 28.6033 37.9262C29.4184 38.7266 30.4111 39.1338 31.5613 39.1338C32.3223 39.1338 33.058 38.9336 33.7505 38.5418L33.7995 38.5109V38.4301L33.7886 38.408L33.2079 37.4032L33.1574 37.3157L33.0694 37.3734C32.9082 37.4768 32.7491 37.5612 32.6034 37.6225C32.3223 37.7538 31.9768 37.8186 31.5721 37.8186C30.7962 37.8186 30.1305 37.5417 29.5914 36.995C29.0564 36.4499 28.7835 35.7689 28.7835 34.9726C28.7835 34.1655 29.0564 33.4726 29.5914 32.9198C30.1269 32.3572 30.7916 32.0766 31.569 32.0766ZM122.61 32.2274L122.636 32.1996L123.733 31.0806L123.898 30.9112H119.216V38.9876H122.636L122.664 38.9608L123.737 37.8418L123.894 37.6765H120.601V35.1687H121.616L121.644 35.1383L122.756 34.0234L122.921 33.854H120.601V32.2274H122.61ZM98.9167 32.2274H100.728V39.0797L100.882 38.9727L102.071 38.1347L102.114 38.1038V32.2274H103.922V30.9112H98.9167V32.2274ZM69.6301 30.765C68.4716 30.765 67.464 31.1774 66.6412 31.9886C65.8102 32.7998 65.3906 33.7851 65.3906 34.9149C65.3906 36.1992 65.8519 37.257 66.7607 38.0533C67.5835 38.7693 68.5293 39.1338 69.5683 39.1338C70.7381 39.1338 71.7539 38.7225 72.5803 37.9154C73.4077 37.1114 73.8268 36.1189 73.8268 34.9618C73.8268 33.8149 73.4113 32.8148 72.588 31.9994C71.7694 31.1804 70.7762 30.765 69.6301 30.765ZM71.6072 36.9924C71.0568 37.5417 70.3761 37.8186 69.5796 37.8186C68.8526 37.8186 68.1946 37.5453 67.6375 37.0033C67.0717 36.4653 66.787 35.7689 66.787 34.9273C66.787 34.131 67.0639 33.4494 67.6061 32.9074C68.1488 32.3572 68.8259 32.0766 69.6146 32.0766C70.407 32.0766 71.08 32.3572 71.6154 32.9074C72.1576 33.4541 72.4305 34.1418 72.4305 34.9494C72.4305 35.7457 72.1535 36.4345 71.6072 36.9924ZM132.162 31.9541C131.75 31.5804 131.285 31.3117 130.78 31.1537C130.311 30.9926 129.672 30.9112 128.873 30.9112H127.122V38.9876H128.852C129.657 38.9876 130.292 38.915 130.738 38.7647C131.211 38.6149 131.672 38.3457 132.108 37.9653C132.973 37.1994 133.412 36.1884 133.412 34.9494C133.412 33.7228 132.993 32.7113 132.162 31.9541ZM131.173 36.9693C130.896 37.2143 130.584 37.3996 130.246 37.5108C129.903 37.6225 129.468 37.6765 128.945 37.6765H128.507V32.2274H128.945C129.93 32.2274 130.68 32.4616 131.181 32.9198C131.735 33.4386 132.014 34.1186 132.014 34.9494C132.014 35.7766 131.735 36.453 131.173 36.9693ZM113.893 35.5965C114.369 35.4616 114.766 35.2032 115.07 34.8228C115.404 34.4074 115.57 33.8993 115.57 33.3228C115.57 32.5842 115.3 31.9762 114.77 31.5233C114.288 31.1197 113.512 30.9112 112.45 30.9112H110.957V39.0797L111.111 38.9727L112.304 38.1347L112.346 38.1038V35.7653H112.411L114.631 38.95L114.689 39.0303L114.77 38.9727L115.723 38.2839L115.8 38.2263L115.746 38.146L113.893 35.5965ZM112.346 34.6153V32.1111H112.769C113.866 32.1111 114.412 32.5157 114.412 33.3228C114.412 34.1845 113.85 34.6153 112.723 34.6153H112.346ZM95.1308 30.9421L92.231 33.9148V30.8227L92.0766 30.9344L90.8882 31.7693L90.8455 31.7997V39.0797L91.0036 38.9727L92.1919 38.1347L92.231 38.1038V35.669L92.3726 35.5301L95.1421 38.9531L95.1962 39.0221L95.2734 38.9727L96.2929 38.2839L96.3814 38.2227L96.3119 38.1372L93.3622 34.5839L96.8618 31.0806L97.0276 30.9112H95.1622L95.1308 30.9421ZM78.0931 31.7729L78.0503 31.8038V36.1071C78.0503 36.7582 77.9813 37.2143 77.847 37.4681C77.7275 37.7069 77.5159 37.8186 77.2008 37.8186C76.9701 37.8186 76.7199 37.7306 76.4506 37.5499L76.3621 37.4923L76.3121 37.5798L75.7236 38.5954L75.6773 38.6798L75.7581 38.7302C76.204 38.9958 76.6885 39.1338 77.2008 39.1338C77.8856 39.1338 78.4427 38.8836 78.8582 38.3998C79.0703 38.1542 79.2207 37.8495 79.3128 37.4959C79.3973 37.1886 79.4431 36.734 79.4431 36.1112V30.8227L79.2855 30.9344L78.0931 31.7729ZM86.6065 32.2274L86.6369 32.1996L87.7331 31.0806L87.8947 30.9112H83.2176V38.9876H86.6333L86.6642 38.9608L87.7331 37.8418L87.8917 37.6765H84.6026V35.1687H85.6139L85.6406 35.1383L86.7522 34.0234L86.918 33.854H84.6026V32.2274H86.6065Z" fill="black"/>
<path d="M135.747 33.5862C134.968 33.5862 134.335 32.9525 134.335 32.1742C134.335 31.3882 134.968 30.7623 135.747 30.7623C136.533 30.7623 137.16 31.3882 137.16 32.1742C137.16 32.9525 136.533 33.5862 135.747 33.5862ZM135.747 30.9744C135.081 30.9744 134.548 31.5015 134.548 32.1742C134.548 32.8331 135.081 33.3726 135.747 33.3726C136.414 33.3726 136.946 32.8331 136.946 32.1742C136.946 31.5015 136.414 30.9744 135.747 30.9744ZM136.134 32.986L135.714 32.3472H135.434V32.986H135.208V31.3681H135.867C136.141 31.3681 136.393 31.5607 136.393 31.8613C136.393 32.2206 136.073 32.34 135.981 32.34L136.414 32.986H136.134ZM135.867 31.5684H135.434V32.1403H135.867C136.007 32.1403 136.16 32.028 136.16 31.8613C136.16 31.6811 136.007 31.5684 135.867 31.5684Z" fill="black"/>
</svg>
