<svg width="64" height="64" viewBox="0 0 64 64" fill="none" xmlns="http://www.w3.org/2000/svg">
<path d="M32.0643 63.984C31.7494 63.984 31.4358 63.9784 31.1227 63.9694L37.5971 46.176H46.5071C48.071 46.176 49.7878 44.9738 50.3227 43.505L57.3465 24.2115C58.4958 21.0528 56.6865 18.4685 53.3254 18.4685H40.9643L30.5932 46.9682H30.5892L24.7094 63.124C10.7601 59.8078 0.384277 47.2681 0.384277 32.304C0.384277 17.7716 10.1699 5.52562 23.5111 1.79354L17.4443 18.4685H17.4425L7.35681 46.176L14.0708 46.1766L22.6478 22.6322H27.6939L19.1168 46.1766L25.8283 46.1778L33.8213 24.2115C34.9712 21.0528 33.1618 18.4685 29.8037 18.4685H24.16L30.6401 0.657317C31.1124 0.636343 31.5867 0.624023 32.064 0.624023C49.5604 0.624023 63.744 14.8076 63.744 32.304C63.744 49.8003 49.5604 63.984 32.064 63.984H32.0643ZM51.2324 22.6152H46.1878L39.1233 41.9984H44.1681L51.2324 22.6152Z" fill="black"/>
</svg>
