<svg width="46" height="27" viewBox="0 0 46 27" fill="none" xmlns="http://www.w3.org/2000/svg">
<path d="M0.984375 0.77416H14.1723C15.6257 0.77416 16.9123 1.06175 18.0322 1.63693C19.152 2.18814 20.0217 2.991 20.6412 4.04549C21.2607 5.07602 21.5704 6.26233 21.5704 7.60442V10.9476C21.5704 12.3377 21.2488 13.5719 20.6054 14.6504C19.9621 15.7049 19.0567 16.5317 17.8892 17.1308C16.7456 17.706 15.4113 17.9936 13.8864 17.9936H5.91645V25.9383H0.984375V0.77416ZM13.8149 13.6798C14.6488 13.6798 15.3279 13.4161 15.8521 12.8889C16.3763 12.3377 16.6383 11.6187 16.6383 10.732V7.82011C16.6383 6.98131 16.4001 6.32225 15.9236 5.84293C15.4708 5.33965 14.8633 5.08801 14.1008 5.08801H5.91645V13.6798H13.8149Z" fill="#FBF503"/>
<path d="M32.805 26.2259C30.9703 26.2259 29.3501 25.8304 27.9444 25.0395C26.5624 24.2487 25.4902 23.1343 24.7278 21.6963C23.9653 20.2344 23.5841 18.5568 23.5841 16.6635V10.0489C23.5841 8.15563 23.9653 6.49001 24.7278 5.05206C25.5141 3.59014 26.6101 2.46375 28.0158 1.67288C29.4454 0.882008 31.0895 0.486572 32.9479 0.486572H36.7363C38.5233 0.486572 40.0958 0.870025 41.454 1.63693C42.8121 2.40384 43.8604 3.4823 44.599 4.87232C45.3615 6.23837 45.7427 7.83209 45.7427 9.6535H40.8821C40.8821 8.21555 40.5009 7.06519 39.7384 6.20242C38.976 5.31568 37.9753 4.87232 36.7363 4.87232H32.9479C31.6136 4.87232 30.5414 5.3756 29.7313 6.38216C28.9212 7.36476 28.5162 8.65891 28.5162 10.2646V16.4478C28.5162 18.0535 28.9093 19.3596 29.6956 20.3662C30.4819 21.3488 31.5183 21.8401 32.805 21.8401H36.6648C37.9276 21.8401 38.9522 21.3488 39.7384 20.3662C40.5485 19.3836 40.9536 18.0895 40.9536 16.4838H45.8142C45.8142 18.425 45.433 20.1385 44.6705 21.6244C43.9081 23.0863 42.8359 24.2247 41.454 25.0395C40.072 25.8304 38.4756 26.2259 36.6648 26.2259H32.805Z" fill="#FBF503"/>
</svg>
