<svg width="105" height="106" viewBox="0 0 105 106" fill="none" xmlns="http://www.w3.org/2000/svg">
<path d="M51.7422 9.49683L52.3926 9.78882L53.042 9.49683L67.8789 2.82202L76.1504 17.4919L76.4902 18.0955L77.1631 18.2556L92.9873 22.0203L91.4912 39.0281L91.4336 39.6794L91.8535 40.1814L102.601 53.0554L91.8535 65.9304L91.4336 66.4324L91.4912 67.0837L92.9873 84.0906L77.1631 87.8562L76.4912 88.0164L76.1514 88.6179L67.8809 103.24L53.042 96.5652L52.3896 96.2722L51.7383 96.5671L36.9004 103.288L28.6328 88.6677L28.293 88.0662L27.6211 87.906L11.7969 84.1404L13.293 67.0837L13.3496 66.4324L12.9307 65.9304L2.18164 53.0535L12.9326 40.1296L13.3496 39.6287L13.293 38.9783L11.7969 21.9246L27.6162 18.2068L28.291 18.0476L28.6328 17.4441L36.9023 2.82007L51.7422 9.49683Z" stroke="#F8F200" stroke-width="3.168"/>
<path d="M43.1233 72.1249L38.5031 67.5047C36.655 65.6566 34.8069 65.6566 32.9588 67.5047L28.6746 71.7889L30.5227 73.637L34.8069 69.3528C35.4229 68.7368 36.0333 68.7312 36.6382 69.336L36.655 69.3528L33.4292 72.5785C31.8835 74.1242 31.8667 75.6531 33.3788 77.1652C34.9469 78.7333 36.5038 78.7445 38.0494 77.1988L43.1233 72.1249ZM35.2605 75.3507C34.9581 75.0483 34.9637 74.7403 35.2773 74.4266L38.5031 71.2009L39.4271 72.1249L36.2014 75.3507C35.8877 75.6643 35.5741 75.6643 35.2605 75.3507ZM52.4478 62.8005L49.81 65.4382L44.1314 65.5726L43.2073 66.4966L45.9794 69.2688L44.1314 71.1169L36.739 63.7245L38.5871 61.8764L41.3592 64.6485L42.2833 63.7245L42.4345 58.029L45.0554 55.4081L44.9714 62.8845L52.4478 62.8005ZM51.1103 49.3532L56.6546 54.8975L53.8824 57.6696C53.2664 58.2857 52.6504 58.2857 52.0343 57.6696L47.4141 53.0494L45.566 54.8975L50.1862 59.5177C52.0343 61.3658 53.8824 61.3658 55.7305 59.5177L59.4267 55.8215L61.2748 57.6696L63.2069 55.7375L59.5107 52.0413L58.5027 53.0494L52.9584 47.5051L51.1103 49.3532ZM69.2598 45.9884L67.4117 47.8365L66.6221 47.0469C66.3084 48.6374 65.7036 49.8806 64.8076 50.7767C62.9595 52.6248 61.1114 52.6248 59.2633 50.7767L54.475 45.9884L56.3231 44.1403L61.1114 48.9286C61.7162 49.5334 62.3322 49.5334 62.9595 48.9286C64.0347 47.5397 64.3707 46.0276 63.9675 44.3924L60.0193 40.4442L61.8674 38.5961L69.2598 45.9884ZM65.2276 39.9401C63.6595 38.372 63.6483 36.8152 65.194 35.2695L70.2678 30.1956L77.6602 37.588L75.8121 39.4361L73.04 36.664L72.2167 37.4872L72.6704 42.5779L70.2678 44.9804L69.8142 39.8897C68.2685 41.4354 66.7397 41.4522 65.2276 39.9401ZM70.2678 33.8918L67.0421 37.1176C66.7285 37.4312 66.7397 37.756 67.0757 38.092C67.3557 38.372 67.6525 38.3552 67.9661 38.0416L71.1919 34.8159L70.2678 33.8918Z" fill="#F8F200"/>
</svg>
