<svg width="47" height="40" viewBox="0 0 47 40" fill="none" xmlns="http://www.w3.org/2000/svg">
<g clip-path="url(#clip0_22_1830)">
<path fill-rule="evenodd" clip-rule="evenodd" d="M7.42726 6.5251C7.25313 6.65359 7.15604 6.85742 7.15527 7.0672V7.07553C7.15604 7.16396 7.17377 7.25358 7.21036 7.33884L10.3078 14.5772C10.445 14.8981 10.799 15.0551 11.1199 14.9377C13.1479 14.1918 20.1707 11.8319 24.7156 13.1048C24.7156 13.1048 20.1565 13.3769 16.0338 16.7115C15.8015 16.8999 15.7241 17.2275 15.8431 17.5058C16.1779 18.2859 16.8498 19.8539 17.2301 20.7402L17.764 22.0322C17.8912 22.3387 18.2972 22.3756 18.4764 22.098C19.4383 20.6038 21.0603 19.8574 22.6182 19.2059C24.2143 18.5389 25.8798 18.0412 27.5788 17.745C29.3891 17.4293 31.2375 17.3448 33.0671 17.5118C33.3718 17.5396 33.6546 17.3468 33.7455 17.0462L35.1448 12.4334C35.2272 12.1606 35.1325 11.8624 34.9075 11.6947C33.3472 10.5288 27.1665 6.61274 16.2977 8.18589C16.2977 8.18589 25.5724 2.69037 37.3469 8.7272C37.7036 8.91041 38.1344 8.71808 38.2534 8.32707L39.487 4.25916C39.5062 4.19611 39.5155 4.13226 39.5166 4.06921V4.04978C39.5132 3.81818 39.393 3.59849 39.1888 3.47913C37.711 2.61661 32.7077 0.0322266 25.8251 0.0322266C20.5498 0.0318301 14.1711 1.54986 7.42726 6.5251Z" fill="#FBF503"/>
<path d="M13.3743 39.8345H12.257C12.1726 39.8345 12.0916 39.7998 12.032 39.7382C11.9723 39.6765 11.9388 39.5929 11.9388 39.5057V32.8283H9.20174C9.02656 32.8275 8.88497 32.6805 8.88497 32.4995V31.4652C8.88497 31.2837 9.02743 31.1365 9.20317 31.1365H16.43C16.6057 31.1365 16.7482 31.2837 16.7482 31.4652V32.4995C16.7482 32.6811 16.6057 32.8283 16.43 32.8283H13.6925V39.5057C13.6925 39.5929 13.6589 39.6765 13.5993 39.7382C13.5396 39.7998 13.4586 39.8345 13.3743 39.8345ZM8.15095 39.2031C8.56055 38.7799 8.72802 38.2415 8.72802 37.3456V37.1177C8.72802 36.2209 8.56055 35.684 8.15095 35.2598C7.71695 34.8108 7.1418 34.6279 6.16757 34.6279H2.63002C2.48933 34.6279 2.3544 34.5701 2.25496 34.4673C2.15552 34.3645 2.09972 34.225 2.09984 34.0796V33.3761C2.09984 33.0736 2.33721 32.8283 2.63002 32.8283H7.69446C7.8702 32.8283 8.01267 32.6811 8.01267 32.4995V31.4652C8.01267 31.2837 7.8702 31.1365 7.69446 31.1365H2.92813C1.95342 31.1365 1.37875 31.3194 0.944268 31.7683C0.534672 32.1915 0.367676 32.7299 0.367676 33.6258V33.8057C0.367676 34.7041 0.534672 35.2405 0.944268 35.6637C1.37875 36.1126 1.95342 36.2955 2.92813 36.2955H6.4786C6.77148 36.2955 7.00899 36.5407 7.00925 36.8433V37.5943C7.00925 37.8971 6.77167 38.1426 6.4786 38.1426H1.14476C0.969021 38.1426 0.826557 38.2898 0.826557 38.4714V39.5057C0.826557 39.5929 0.860082 39.6765 0.919756 39.7382C0.979431 39.7998 1.06037 39.8345 1.14476 39.8345H6.16901C7.14227 39.8345 7.71695 39.6515 8.15095 39.2031ZM33.432 35.4615V35.5213C33.432 37.1973 33.1751 38.0566 32.4492 38.8066C31.7793 39.4988 30.7821 39.8448 29.4786 39.8448H25.6238C25.4481 39.8448 25.3056 39.6976 25.3056 39.5161V31.4652C25.3056 31.2837 25.4481 31.1365 25.6238 31.1365H29.4801C30.7835 31.1365 31.7826 31.4865 32.4506 32.1747C33.1765 32.9242 33.432 33.7859 33.432 35.4615ZM31.6788 35.4615C31.6788 34.3461 31.6104 33.8097 31.1869 33.3721C30.8405 33.0142 30.282 32.8407 29.4786 32.8407H27.0593V38.1426H29.4801C30.2835 38.1426 30.8424 37.9686 31.1883 37.6106C31.6118 37.1736 31.6802 36.6367 31.6802 35.5213L31.6788 35.4615ZM36.2762 39.5057V31.4652C36.2762 31.2837 36.1337 31.1365 35.958 31.1365H34.8421C34.6664 31.1365 34.5239 31.2837 34.5239 31.4652V39.5057C34.5239 39.6873 34.6664 39.8345 34.8421 39.8345H35.9594C36.0438 39.8345 36.1248 39.7998 36.1844 39.7382C36.2441 39.6765 36.2776 39.5929 36.2776 39.5057H36.2762ZM24.2783 39.8345H23.0964C22.9306 39.8343 22.78 39.7345 22.7107 39.5789L22.1672 38.3626H17.7808L17.2362 39.5793C17.1673 39.7338 17.018 39.8331 16.8534 39.834H15.6658C15.5563 39.8341 15.4545 39.776 15.3962 39.6804C15.3379 39.5847 15.3313 39.4647 15.3787 39.3628L18.9674 31.6422C19.155 31.2455 19.5449 30.9938 19.9723 30.9938C20.3996 30.9938 20.7896 31.2455 20.9771 31.6422L24.5659 39.3618C24.6139 39.4637 24.6077 39.584 24.5495 39.68C24.4914 39.7761 24.3894 39.8345 24.2797 39.8345H24.2783ZM18.4971 36.7524H21.4528L19.978 33.2772L18.4971 36.7524ZM45.985 39.8345H44.8007C44.6348 39.8344 44.4842 39.7346 44.415 39.5789L43.8724 38.3626H39.486L38.9419 39.5793C38.8727 39.7336 38.7236 39.8327 38.5591 39.834H37.3715C37.2621 39.8341 37.1602 39.776 37.1019 39.6804C37.0436 39.5847 37.037 39.4647 37.0844 39.3628L40.6731 31.6422C40.8604 31.2451 41.2505 30.9932 41.678 30.9932C42.1055 30.9932 42.4956 31.2451 42.6828 31.6422L46.2716 39.3618C46.3196 39.4638 46.3134 39.5841 46.2551 39.6802C46.1968 39.7764 46.0947 39.8346 45.985 39.8345H45.985ZM40.2023 36.7524H43.158L41.6837 33.2772L40.2023 36.7524Z" fill="#FBF503"/>
</g>
<defs>
<clipPath id="clip0_22_1830">
<rect width="45.936" height="39.8125" fill="white" transform="translate(0.367676 0.0322266)"/>
</clipPath>
</defs>
</svg>
