<svg width="142" height="29" viewBox="0 0 142 29" fill="none" xmlns="http://www.w3.org/2000/svg">
<g clip-path="url(#clip0_22_1860)">
<path d="M90.8568 23.0344L85.4756 15.7867L80.1004 23.0344H77.8859L84.3551 14.2776L78.4469 6.31787H80.6614L85.4756 12.8096L90.2899 6.31787H92.5029L86.5991 14.2762L93.0698 23.0344H90.8568ZM48.9251 23.0315L42.4485 14.2762L48.3567 6.31787H46.1423L41.3265 12.8111L36.5152 6.31787H34.3067L40.2119 14.2762L33.7368 23.0315H35.9542L41.3295 15.7867L46.7092 23.0315H48.9251Z" fill="#FBF503"/>
<path d="M61.2391 14.909C60.9054 14.6268 60.5338 14.3921 60.1348 14.2117C60.747 13.8889 61.259 13.4067 61.6158 12.8168C61.9727 12.227 62.1609 11.5519 62.1603 10.864C62.1603 9.79446 61.7632 6.31636 56.6847 6.31636H49.8449V13.5231H47.567C47.2717 13.9055 46.6 14.8241 46.3446 15.2006H49.8449V23.0314L56.6862 23.0329C60.3917 23.0329 62.6933 21.1664 62.6933 18.1527C62.6933 16.8371 62.1928 15.7192 61.2391 14.909ZM51.7361 8.06127H56.6862C58.0252 8.06127 60.2692 8.39238 60.2692 10.7175C60.2692 12.4756 58.9626 13.5231 56.6862 13.5231H51.7361V8.06127ZM56.6847 21.2895H51.7346V15.205H56.6847C58.5611 15.205 60.8065 15.7192 60.8065 18.1161C60.8065 20.8763 58.2245 21.2895 56.6847 21.2895ZM71.591 5.93251C66.8594 5.93251 63.5525 9.52342 63.5525 14.6658C63.5525 19.8156 66.8594 23.4036 71.591 23.4036C76.3182 23.4036 79.6162 19.8156 79.6162 14.6658C79.6162 9.52342 76.3182 5.93251 71.591 5.93251ZM71.591 21.6352C67.9859 21.6352 65.4599 18.7681 65.4599 14.6658C65.4599 10.5636 67.9859 7.69793 71.591 7.69793C75.1903 7.69793 77.7015 10.5636 77.7015 14.6658C77.7015 18.7681 75.1903 21.6352 71.591 21.6352ZM4.84545 4.54068V4.54215C3.52065 5.83656 2.469 7.37994 1.75191 9.08217C1.03482 10.7844 0.666673 12.6113 0.668958 14.4563C0.664763 17.5064 1.67342 20.4728 3.53891 22.8967C3.5581 22.9201 3.58763 22.9333 3.6142 22.9201C3.6393 22.9054 3.64078 22.8747 3.63044 22.8483C2.56011 19.5636 8.03133 11.6024 10.8585 8.26492C10.8673 8.25319 10.8791 8.24001 10.8791 8.22389C10.8791 8.20485 10.8658 8.1902 10.8526 8.17848C6.09736 3.48143 4.82773 4.55534 4.84545 4.54068ZM24.5616 4.52896L24.5749 4.54068V4.54215C25.8996 5.83658 26.951 7.38 27.6679 9.08225C28.3847 10.7845 28.7525 12.6114 28.7499 14.4563C28.7541 17.5064 27.7454 20.4728 25.8799 22.8967C25.8622 22.9201 25.8312 22.9333 25.8047 22.9201C25.781 22.9054 25.7796 22.8747 25.7884 22.8483C26.8587 19.5636 21.392 11.5965 18.5663 8.25759C18.556 8.24587 18.5456 8.23268 18.5456 8.21803C18.5456 8.19752 18.5574 8.18287 18.5722 8.17115C23.3289 3.47411 24.5896 4.55534 24.5734 4.54068L24.5616 4.52896ZM14.7102 0.521973C17.5432 0.521973 19.8743 1.2926 22.0238 2.56136C22.0504 2.57455 22.0578 2.60385 22.0474 2.63022C22.0371 2.65513 22.0076 2.66099 21.9795 2.65366C19.2616 2.07056 15.1294 4.4015 14.7397 4.63445C14.7308 4.64031 14.722 4.64617 14.7102 4.64617C14.6969 4.64617 14.688 4.64031 14.6792 4.63445C13.6428 4.04402 9.82357 2.05738 7.41866 2.66831C7.39209 2.67417 7.36256 2.66978 7.35075 2.64341C7.34571 2.63103 7.34532 2.61726 7.34966 2.60462C7.354 2.59198 7.36277 2.58131 7.37437 2.57455C9.52388 1.2926 11.8845 0.521973 14.7102 0.521973ZM14.7102 11.6976C14.7264 11.6976 14.7441 11.7108 14.7545 11.7196C18.956 14.89 26.1472 22.7282 23.9519 24.9448L23.9548 24.9419L23.9534 24.9448H23.9504C21.3947 27.171 18.1092 28.3965 14.7087 28.3922C11.3078 28.3962 8.0219 27.1707 5.4655 24.9448C3.27465 22.7282 10.4643 14.89 14.6614 11.7196C14.6733 11.7108 14.6925 11.6976 14.7102 11.6976ZM125.758 6.31783V20.0354L115.576 6.30757L113.907 6.30464V23.0065H115.781V9.59228L125.755 23.0168L127.635 23.0197V6.31783H125.758ZM104.173 5.92958C99.4416 5.92958 96.1332 9.52195 96.1332 14.6629C96.1332 19.8127 99.4416 23.4065 104.173 23.4065C108.9 23.4065 112.198 19.8127 112.198 14.6629C112.198 9.52342 108.9 5.92958 104.173 5.92958ZM104.173 21.6352C100.568 21.6352 98.0421 18.7681 98.0421 14.6629C98.0421 10.5622 100.568 7.695 104.173 7.695C107.772 7.695 110.284 10.5622 110.284 14.6629C110.284 18.7681 107.772 21.6352 104.173 21.6352ZM131.625 21.3847V15.205H140.892V13.57H131.625V7.93967H141.521V6.3061H129.74V23.0197H141.638V21.3847H131.625Z" fill="#FBF503"/>
</g>
<defs>
<clipPath id="clip0_22_1860">
<rect width="140.976" height="27.8687" fill="white" transform="translate(0.664062 0.521973)"/>
</clipPath>
</defs>
</svg>
